<svg width="48" height="48" viewBox="0 0 48 48" fill="none" xmlns="http://www.w3.org/2000/svg">
<path d="M4 16C4 15.4696 4.21071 14.9609 4.58579 14.5858C4.96086 14.2107 5.46957 14 6 14H42C42.5304 14 43.0391 14.2107 43.4142 14.5858C43.7893 14.9609 44 15.4696 44 16C44 16.5304 43.7893 17.0391 43.4142 17.4142C43.0391 17.7893 42.5304 18 42 18H6C5.46957 18 4.96086 17.7893 4.58579 17.4142C4.21071 17.0391 4 16.5304 4 16Z" fill="#BE8958"/>
<path d="M4 24C4 23.4696 4.21071 22.9609 4.58579 22.5858C4.96086 22.2107 5.46957 22 6 22H42C42.5304 22 43.0391 22.2107 43.4142 22.5858C43.7893 22.9609 44 23.4696 44 24C44 24.5304 43.7893 25.0391 43.4142 25.4142C43.0391 25.7893 42.5304 26 42 26H6C5.46957 26 4.96086 25.7893 4.58579 25.4142C4.21071 25.0391 4 24.5304 4 24Z" fill="#BE8958"/>
<path d="M6 30C5.46957 30 4.96086 30.2107 4.58579 30.5858C4.21071 30.9609 4 31.4696 4 32C4 32.5304 4.21071 33.0391 4.58579 33.4142C4.96086 33.7893 5.46957 34 6 34H30C30.5304 34 31.0391 33.7893 31.4142 33.4142C31.7893 33.0391 32 32.5304 32 32C32 31.4696 31.7893 30.9609 31.4142 30.5858C31.0391 30.2107 30.5304 30 30 30H6Z" fill="#BE8958"/>
</svg>
